# File exported by ZBrush version 2025
# www.zbrush.com
#Vertex Count 972
#Face Count 970
#Auto scale x=1.000000 y=1.000000 z=1.000000
#Auto offset x=0.000000 y=0.000000 z=0.000000
v -0.97338229 -0.75723147 0.70295745
v 0.82581484 0.95105779 -0.80119288
v 0.678447 -0.91700577 -0.73570424
v -0.39308074 -0.99611878 -0.39020407
v -0.86869543 0.88647377 0.84287428
v 0.78024274 -0.80806368 0.68074268
v 0.59249687 0.9981637 0.50450563
v -0.75906628 0.96759289 -0.79415023
v -0.97300326 -0.67158156 0.72775614
v -0.97825658 -0.66292452 0.64285248
v -0.97384816 -0.7693662 0.64050108
v -0.95548009 -0.83083039 0.654141
v -0.9585247 -0.79478013 0.7352783
v -0.9619106 -0.68559259 0.79074811
v 0.86484307 0.9046731 -0.83048856
v 0.76310402 0.90681898 -0.88774627
v 0.73957848 0.96866989 -0.81315052
v 0.72607487 0.9930157 -0.68704706
v 0.82935982 0.96729505 -0.69402456
v 0.90060108 0.91310447 -0.70180559
v 0.58081352 -0.94519084 -0.7808476
v 0.58865296 -0.86659187 -0.86593294
v 0.70420193 -0.84881323 -0.78607392
v 0.7702437 -0.8550229 -0.69169634
v 0.69856721 -0.93602144 -0.66501313
v 0.56800794 -0.98326206 -0.68849474
v -0.4291985 -0.99595952 -0.31530126
v -0.56331336 -0.9881888 -0.39822694
v -0.48434528 -0.98937887 -0.49013206
v -0.38958311 -0.99135965 -0.55680179
v -0.30974528 -0.99735522 -0.40814602
v -0.30103433 -0.99864298 -0.28631433
v -0.88982957 0.90806055 0.8023591
v -0.93268352 0.82244771 0.81951791
v -0.88590019 0.82604205 0.8722915
v -0.81453758 0.832246 0.91206783
v -0.81408095 0.90364372 0.86006605
v -0.8154962 0.94241249 0.80730485
v 0.6988995 -0.83536434 0.70076119
v 0.70755249 -0.92028766 0.62099498
v 0.81972563 -0.85026204 0.60816305
v 0.89112293 -0.74828958 0.6094802
v 0.80703198 -0.73120057 0.69294184
v 0.70789098 -0.73588675 0.73861634
v 0.61643475 0.99835258 0.42508056
v 0.49856966 0.99906504 0.43237444
v 0.52289915 0.99834775 0.55950844
v 0.57488399 0.99617391 0.65252965
v 0.65889257 0.99581491 0.56208896
v 0.71319121 0.99632757 0.46567338
v -0.77597779 0.98110967 -0.69580584
v -0.65043371 0.99567449 -0.68600416
v -0.65788477 0.97748309 -0.80352449
v -0.67446494 0.92850285 -0.88472425
v -0.79955828 0.92030543 -0.83258599
v -0.86530709 0.93219131 -0.71203291
v -0.82763719 0.84722095 -0.85547876
v -0.92042344 0.85348922 -0.72611254
v -0.9545722 0.85959088 -0.57387334
v -0.88420313 0.9370144 -0.56676143
v -0.78184938 0.9834851 -0.55623602
v -0.88791906 0.94504636 -0.41049039
v -0.78323358 0.98750716 -0.40466922
v -0.65659987 0.99750942 -0.39841535
v -0.65255582 0.99702608 -0.54793149
v -0.49818623 0.99946773 -0.39464178
v -0.49815189 0.9988541 -0.54746645
v -0.50124412 0.99652379 -0.68671393
v -0.50975924 0.9824875 -0.80372965
v -0.33974093 0.9991303 -0.54804545
v -0.34277787 0.99650144 -0.68778783
v -0.34700778 0.98315489 -0.80093133
v -0.35221257 0.93726164 -0.89319247
v -0.51879471 0.93642312 -0.89749991
v -0.1809028 0.99675965 -0.68384414
v -0.18240919 0.98535358 -0.79676586
v -0.18462394 0.94052588 -0.89157229
v -0.01656181 0.93934196 -0.88936543
v -0.01703552 0.85940933 -0.95460528
v -0.18787744 0.85933518 -0.95372283
v -0.35830232 0.85706692 -0.95309168
v -0.0171657 0.98605489 -0.79424858
v -0.01872476 0.99682217 -0.68130546
v 0.14233963 0.99654442 -0.68057465
v 0.14667516 0.98404407 -0.79370468
v 0.15050649 0.93847143 -0.89104324
v 0.15350122 0.85588026 -0.95576536
v 0.30828419 0.98420387 -0.79665166
v 0.31561163 0.93350523 -0.89375364
v 0.32218214 0.8495388 -0.95788103
v 0.48729777 0.84287101 -0.95751744
v 0.50319224 0.7482739 -0.98938918
v 0.3296962 0.75000345 -0.98924869
v 0.15632879 0.75556898 -0.98709768
v 0.4756869 0.92629724 -0.89708608
v 0.6276133 0.91975104 -0.89876806
v 0.64828604 0.84012168 -0.95150506
v 0.46532693 0.98090297 -0.80081623
v 0.61098229 0.9784187 -0.80618387
v 0.45561194 0.9966219 -0.68349105
v 0.60174495 0.99577301 -0.68334257
v 0.44775584 0.99893671 -0.54443985
v 0.5967977 0.99826896 -0.5444374
v 0.72088354 0.99575805 -0.54738217
v 0.59472012 0.99878102 -0.39226752
v 0.72038054 0.99627488 -0.39622676
v 0.82146579 0.98597723 -0.40006059
v 0.82565182 0.97949236 -0.55319887
v 0.9052881 0.94474548 -0.40114063
v 0.9067797 0.92913389 -0.55684429
v 0.95983618 0.87184649 -0.39842313
v 0.96058875 0.85466152 -0.55650967
v 0.94692158 0.84168869 -0.70546102
v 0.98867803 0.7638061 -0.5513724
v 0.97599571 0.74981159 -0.70202082
v 0.91776615 0.73638027 -0.83427041
v 0.89614474 0.83224564 -0.83800882
v 0.80560022 0.7331559 -0.92201143
v 0.78608566 0.83093351 -0.91543436
v 0.66741108 0.74223309 -0.97172033
v 0.81786459 0.6112917 -0.90835356
v 0.68319869 0.62305921 -0.97083205
v 0.51795065 0.63892221 -0.99620401
v 0.68732541 0.48575991 -0.95812124
v 0.5276665 0.5075711 -0.99348342
v 0.35055312 0.519239 -0.99805909
v 0.34029707 0.64535105 -0.99636685
v 0.16717535 0.5221734 -0.99740982
v 0.16033631 0.64869558 -0.99445867
v -0.01708338 0.51781261 -0.99556869
v -0.01926053 0.64990371 -0.99172067
v -0.01844286 0.75889337 -0.98381453
v -0.19709965 0.64791315 -0.98895335
v -0.19218722 0.75941431 -0.98098129
v -0.37230363 0.64206802 -0.98621094
v -0.36518177 0.7579689 -0.97855609
v -0.54520446 0.63245159 -0.98232483
v -0.5352841 0.75518447 -0.97664517
v -0.5270195 0.85680449 -0.95378679
v -0.7031365 0.75168591 -0.95907282
v -0.68975532 0.85476362 -0.93624293
v -0.84580647 0.74689775 -0.8702054
v -0.71497112 0.62558579 -0.96139717
v -0.8615235 0.62401795 -0.8768152
v -0.96161973 0.62555301 -0.74070203
v -0.94897049 0.75058323 -0.73810893
v -0.99496328 0.63275408 -0.57704466
v -0.98946744 0.75678634 -0.57645058
v -0.99788951 0.64950138 -0.40867438
v -0.99133461 0.76736229 -0.41054636
v -0.95985847 0.86882478 -0.41233277
v -0.99123257 0.78277123 -0.24387066
v -0.95682257 0.88353788 -0.24668803
v -0.88236403 0.95544904 -0.24713704
v -0.95154494 0.89130491 -0.08148727
v -0.87634486 0.96201658 -0.08399278
v -0.7702347 0.99245864 -0.0854232
v -0.77791929 0.99138343 -0.24568735
v -0.64679366 0.99815481 -0.08595009
v -0.65351402 0.99786305 -0.24323597
v -0.49204775 0.99958062 -0.08595671
v -0.49677243 0.99958676 -0.24080976
v -0.33315777 0.99990624 -0.08625181
v -0.33642908 0.99990052 -0.24013546
v -0.33824148 0.99976176 -0.39398324
v -0.17874987 0.999942 -0.24018499
v -0.17949807 0.99983257 -0.39354509
v -0.17995132 0.99916344 -0.54651063
v -0.0222126 0.99982577 -0.39315703
v -0.02061712 0.99919372 -0.54499936
v 0.13378302 0.99981975 -0.39267653
v 0.13777209 0.99916648 -0.54446917
v 0.28854376 0.99977499 -0.392111
v 0.29422488 0.99908995 -0.54467201
v 0.30113124 0.99663627 -0.68201357
v 0.4425247 0.99960517 -0.39177534
v 0.28355115 0.99990314 -0.24023179
v 0.43728557 0.9997183 -0.23945853
v 0.59035092 0.99890869 -0.23919422
v 0.42992028 0.99974006 -0.09002997
v 0.58171981 0.99902725 -0.0882274
v 0.71316373 0.99655032 -0.08566717
v 0.7179352 0.99655222 -0.2399619
v 0.80758565 0.98897707 -0.08269676
v 0.81624132 0.98800188 -0.24064157
v 0.89007771 0.96150994 -0.07813718
v 0.90124875 0.95592367 -0.24012923
v 0.95164889 0.9052543 -0.07205776
v 0.95914852 0.89003449 -0.23602354
v 0.97999686 0.82285463 -0.06505589
v 0.98675018 0.80413776 -0.22937904
v 0.9885745 0.78326427 -0.39210721
v 0.99093484 0.70675611 -0.22077754
v 0.99517893 0.68173706 -0.38196036
v 0.99685961 0.65583556 -0.53990924
v 0.99440389 0.55074691 -0.36502924
v 0.9966641 0.52332121 -0.52120971
v 0.98726832 0.50026822 -0.66648334
v 0.9861074 0.63367712 -0.68812602
v 0.93586868 0.48227715 -0.7967934
v 0.93094229 0.61560678 -0.81899529
v 0.82396072 0.47498694 -0.89018333
v 0.93592095 0.34292981 -0.7763459
v 0.82732838 0.3373498 -0.87394732
v 0.68947541 0.34480974 -0.94646549
v 0.82874536 0.19804066 -0.85774034
v 0.69231736 0.2037542 -0.93414419
v 0.53573375 0.22237558 -0.98840433
v 0.53123921 0.36534905 -0.99111008
v 0.36372593 0.24053283 -0.99786168
v 0.35812246 0.38245055 -0.99824392
v 0.18445526 0.24874062 -0.99941402
v 0.17590934 0.38689529 -0.99888622
v -0.0016225 0.24375616 -0.99907594
v -0.01064525 0.3809655 -0.99786907
v -0.18913424 0.22805014 -0.99785643
v -0.19654145 0.36819893 -0.99633556
v -0.19963981 0.509404 -0.99337965
v -0.38011306 0.35249504 -0.99415779
v -0.37812015 0.49834075 -0.99089038
v -0.56232619 0.33600932 -0.99033719
v -0.55772399 0.48588553 -0.98674929
v -0.73785209 0.32023122 -0.96650093
v -0.73153048 0.47890403 -0.96420157
v -0.87804007 0.30949837 -0.8757047
v -0.87541657 0.47565934 -0.87965744
v -0.96639585 0.30834084 -0.73853129
v -0.96615696 0.47505602 -0.74464011
v -0.99558645 0.32275861 -0.57426548
v -0.99587625 0.48172074 -0.58126199
v -0.99898767 0.34765583 -0.40530395
v -0.99908393 0.50168585 -0.40873038
v -0.99976199 0.3709799 -0.23477906
v -0.99956661 0.52227073 -0.23650458
v -0.99797141 0.66723471 -0.23996588
v -0.99953985 0.53675568 -0.06559094
v -0.9975689 0.67862224 -0.07232923
v -0.98933637 0.79311865 -0.07772218
v -0.99719077 0.68565565 0.09233374
v -0.98873734 0.7996549 0.08567984
v -0.94924336 0.89808023 0.08099918
v -0.98690152 0.80388331 0.24365569
v -0.94343787 0.90292757 0.23817969
v -0.85862535 0.96698021 0.23392529
v -0.86957937 0.96578502 0.07707528
v -0.75202709 0.99354785 0.23013611
v -0.76209229 0.99297624 0.07354068
v -0.62982571 0.99788624 0.22720114
v -0.63895529 0.99819374 0.07101807
v -0.47624999 0.99915134 0.2259774
v -0.48483514 0.99950975 0.06951528
v -0.3217279 0.99938613 0.22513361
v -0.32823714 0.99985152 0.06847976
v -0.17007358 0.99946099 0.22339773
v -0.17409116 0.99988633 0.06682556
v -0.17703618 0.99995613 -0.08704618
v -0.02329948 0.9999094 0.06419042
v -0.02367966 0.99995946 -0.08818134
v -0.0232602 0.99994421 -0.24034282
v 0.12743884 0.99995613 -0.08951735
v 0.13050046 0.99993854 -0.24040101
v 0.27795285 0.99992746 -0.09038827
v 0.12447598 0.99991041 0.06049598
v 0.27049669 0.99990314 0.0569166
v 0.41841927 0.9997524 0.05547081
v 0.2614887 0.99976199 0.20293682
v 0.40107461 0.99971944 0.19554902
v 0.54730588 0.9992243 0.19661049
v 0.56810081 0.99908059 0.05851086
v 0.68344211 0.99775517 0.20796591
v 0.70213365 0.99689632 0.06536199
v 0.77668231 0.99498593 0.22058451
v 0.79387915 0.99122005 0.07217934
v 0.86025822 0.9782781 0.23396487
v 0.87505048 0.96834945 0.080112
v 0.92242819 0.929421 0.24677352
v 0.93680745 0.91655129 0.08881772
v 0.95564985 0.85526061 0.25883042
v 0.96805983 0.83922433 0.09747564
v 0.9662832 0.76084971 0.26750639
v 0.97586923 0.74714136 0.10603935
v 0.98400801 0.72792816 -0.05720877
v 0.97741776 0.62404149 0.11788072
v 0.98401069 0.60436248 -0.04488365
v 0.98978686 0.57901352 -0.2065365
v 0.98320424 0.45526528 -0.01999048
v 0.98750805 0.43051198 -0.18247193
v 0.99172884 0.40250995 -0.341077
v 0.98599737 0.28443685 -0.15068982
v 0.98885422 0.25624513 -0.31085768
v 0.99071633 0.23225326 -0.46780479
v 0.99483084 0.37752366 -0.4959307
v 0.98248261 0.21563084 -0.61751377
v 0.98686653 0.3577075 -0.64270114
v 0.93652743 0.20313075 -0.7561655
v 0.97786647 0.07656041 -0.59289676
v 0.93743729 0.06636258 -0.73270243
v 0.83289766 0.06004586 -0.84094429
v 0.94152504 -0.06874563 -0.71152865
v 0.84198838 -0.07644371 -0.82235515
v 0.70430791 -0.07766009 -0.90276819
v 0.69551676 0.06228705 -0.91961258
v 0.54830664 -0.06705509 -0.9735105
v 0.54067879 0.07838819 -0.98366862
v 0.37997204 -0.04828344 -0.99693083
v 0.37088447 0.09844993 -0.9977982
v 0.20980854 -0.03216675 -0.99925112
v 0.19504284 0.10978283 -0.99947625
v 0.03136927 -0.03155825 -0.99933296
v 0.01098273 0.10524661 -0.99946916
v -0.15285228 -0.05498633 -0.9977191
v -0.17597664 0.08672702 -0.99819082
v -0.33497232 -0.09357626 -0.99389505
v -0.35937053 0.05737027 -0.99532407
v -0.37406697 0.20694203 -0.99565082
v -0.5365985 0.02792497 -0.98947137
v -0.55409908 0.18383918 -0.99130177
v -0.70513993 0.00338707 -0.95583581
v -0.72502797 0.16026416 -0.96230125
v -0.84578794 -0.01380804 -0.85222858
v -0.86541271 0.14293451 -0.86451125
v -0.93377661 -0.01823504 -0.69490772
v -0.95606368 0.14009529 -0.7185136
v -0.96857291 -0.00154998 -0.51639729
v -0.98932427 0.15712899 -0.54985112
v -0.99238783 0.0252195 -0.33525756
v -0.99721658 0.1870085 -0.3830665
v -0.99799811 0.06177703 -0.16677154
v -0.99932479 0.21986259 -0.22277024
v -0.9993782 0.09527999 -0.01140186
v -0.99980276 0.24180614 -0.04924157
v -0.99989324 0.38558071 -0.05967734
v -0.99964547 0.24873766 0.13107505
v -0.99970936 0.39553308 0.1147237
v -0.99929201 0.54676866 0.10220786
v -0.9988681 0.40157991 0.28090402
v -0.99880778 0.55451881 0.26518434
v -0.99710923 0.69057089 0.25211328
v -0.99716484 0.56057959 0.42215347
v -0.99654108 0.69499075 0.40562361
v -0.9847573 0.80810082 0.39430561
v -0.99509984 0.6986202 0.55085492
v -0.98628151 0.81422811 0.5355333
v -0.9312995 0.91069543 0.52811878
v -0.93738079 0.90655183 0.38819637
v -0.83922654 0.9720031 0.52804845
v -0.84949666 0.96986687 0.38514396
v -0.72791266 0.99046188 0.52945047
v -0.74181371 0.99293118 0.38317698
v -0.6028614 0.99257373 0.53407126
v -0.61815691 0.99668592 0.382117
v -0.45553153 0.99307566 0.54367828
v -0.4662832 0.99737203 0.38391876
v -0.30660024 0.99314868 0.55226701
v -0.31423163 0.99771964 0.38554778
v -0.15754286 0.99383902 0.55326384
v -0.1648449 0.99784249 0.38488617
v -0.00977014 0.99461036 0.54958492
v -0.01800336 0.99828219 0.380645
v -0.02179275 0.99951589 0.21938815
v 0.12419285 0.99868047 0.37180182
v 0.12228954 0.99966573 0.21226251
v 0.25783538 0.99918037 0.35514724
v 0.13468436 0.99591761 0.54019939
v 0.2714158 0.99753958 0.52091205
v 0.39259517 0.99872297 0.47826886
v 0.38490212 0.99949896 0.33235335
v 0.51649272 0.9993214 0.31995925
v 0.65426242 0.99818611 0.33205708
v 0.75214004 0.99563199 0.35502162
v 0.78904688 0.98383355 0.51183003
v 0.83552807 0.98255646 0.38110846
v 0.84634631 0.94310158 0.5458129
v 0.89876848 0.94077175 0.40284565
v 0.88627564 0.87706017 0.56396752
v 0.94066691 0.86880487 0.41734221
v 0.9121465 0.78294259 0.57957023
v 0.95351809 0.76866531 0.42342525
v 0.92831951 0.67047125 0.61773389
v 0.95877033 0.64226436 0.44636064
v 0.96981322 0.6333636 0.27982476
v 0.96167838 0.50667297 0.49228587
v 0.97205096 0.48744303 0.3123393
v 0.97840601 0.47406902 0.14358271
v 0.97396677 0.34813416 0.34910458
v 0.97949707 0.33073028 0.17885366
v 0.9830951 0.30976524 0.01438391
v 0.98114949 0.18211026 0.21140955
v 0.98382622 0.16676631 0.05014725
v 0.98552447 0.14226101 -0.11805538
v 0.98507434 0.01785211 0.07180475
v 0.9857819 0.00228957 -0.08870612
v 0.98564153 -0.02707142 -0.25113347
v 0.98663538 0.11326957 -0.27949205
v 0.98397201 -0.04803454 -0.41672441
v 0.9866333 0.090484 -0.44058603
v 0.97617298 -0.0599551 -0.57078975
v 0.98250591 -0.1852186 -0.40028092
v 0.97671341 -0.19749248 -0.55183732
v 0.94852256 -0.20616993 -0.6903786
v 0.97796678 -0.34347882 -0.53622406
v 0.9550063 -0.35038635 -0.67158919
v 0.86960578 -0.35461416 -0.78773021
v 0.85502052 -0.21369266 -0.8031035
v 0.73325914 -0.35517609 -0.86922699
v 0.71860921 -0.21662907 -0.88451689
v 0.57303518 -0.35289391 -0.94592344
v 0.56125628 -0.21144387 -0.9595493
v 0.40020766 -0.34951242 -0.99170047
v 0.39052966 -0.19843636 -0.99498242
v 0.23582798 -0.34493088 -0.99755102
v 0.22459963 -0.18293282 -0.99877822
v 0.0797941 -0.33956894 -0.99793398
v 0.05901262 -0.17586621 -0.99888402
v -0.07398171 -0.3394531 -0.99574613
v -0.11444059 -0.19423103 -0.99694091
v -0.25847807 -0.37284168 -0.99005085
v -0.30059292 -0.2388852 -0.9919967
v -0.44998729 -0.43069487 -0.98005825
v -0.48742455 -0.28377589 -0.98408383
v -0.51562619 -0.12954624 -0.98654401
v -0.66383647 -0.31578362 -0.94391614
v -0.68552827 -0.15434445 -0.94944173
v -0.80307143 -0.32573574 -0.83346039
v -0.82406437 -0.16697582 -0.8422712
v -0.88626152 -0.31467837 -0.66502952
v -0.90993285 -0.164485 -0.67846232
v -0.92375546 -0.28874185 -0.47855615
v -0.94749027 -0.14179028 -0.49427083
v -0.95419412 -0.26286992 -0.30020117
v -0.97773426 -0.11286961 -0.3094654
v -0.97694021 -0.25113967 -0.12931342
v -0.99396693 -0.09391374 -0.12789106
v -0.99172633 -0.24937388 0.03437156
v -0.99804192 -0.08150681 0.03125345
v -0.99641293 -0.24549487 0.18715779
v -0.9984501 -0.07509441 0.17732757
v -0.9993391 0.10043062 0.1542826
v -0.9960879 -0.06916715 0.33388096
v -0.99746298 0.09567061 0.31620806
v -0.99830478 0.24993984 0.29766783
v -0.99048703 0.09795182 0.47877341
v -0.99292981 0.2530424 0.46034234
v -0.99551594 0.40601366 0.44143801
v -0.97962796 0.25917071 0.61902511
v -0.98394727 0.41165337 0.59746891
v -0.99062132 0.56432831 0.57255446
v -0.96860122 0.41935759 0.72749549
v -0.97575062 0.56717395 0.70326131
v -0.98591566 0.70177584 0.67667353
v -0.96020901 0.57349801 0.79614728
v -0.96874707 0.70663553 0.76932269
v -0.96188342 0.82213115 0.75039404
v -0.97778636 0.81961339 0.65831977
v -0.9083665 0.91483593 0.73842567
v -0.92016166 0.91370189 0.6483969
v -0.81893062 0.96255707 0.74114257
v -0.82622855 0.96890252 0.64859628
v -0.71208667 0.97830724 0.75225287
v -0.71502816 0.98482465 0.65687191
v -0.58798414 0.98108393 0.76596635
v -0.59073281 0.98675453 0.66973614
v -0.4442805 0.98170757 0.77455431
v -0.4483751 0.98687368 0.68271136
v -0.29246959 0.98191463 0.77479457
v -0.29900196 0.98721402 0.68749833
v -0.13989503 0.98252868 0.77303093
v -0.14821665 0.98794394 0.6879307
v 0.01206784 0.98472219 0.76745575
v 0.00189521 0.98948472 0.68307435
v 0.16404072 0.98772019 0.75786662
v 0.15070116 0.99188965 0.67344099
v 0.31676483 0.9927532 0.74358826
v 0.29599738 0.99513763 0.65615165
v 0.45958659 0.99531215 0.71415495
v 0.42656073 0.99744767 0.62148237
v 0.33483737 0.9872635 0.82232856
v 0.48982846 0.99100828 0.79038906
v 0.61758059 0.98754793 0.72164899
v 0.51326227 0.94708913 0.85105365
v 0.65036964 0.94857263 0.77602928
v 0.76105213 0.94513934 0.6706233
v 0.71791547 0.98582965 0.62254566
v 0.67271566 0.88049089 0.81699633
v 0.78909748 0.87982106 0.70182746
v 0.6984961 0.78762465 0.86364007
v 0.81916523 0.79442495 0.73511439
v 0.72776597 0.65563273 0.89977067
v 0.85044509 0.67944997 0.77605408
v 0.75023144 0.49273961 0.89488542
v 0.87463545 0.52124995 0.80035108
v 0.93973797 0.52632743 0.6608777
v 0.88354462 0.3401536 0.79107987
v 0.94813871 0.35486581 0.67351734
v 0.96540218 0.35835048 0.52332103
v 0.95208042 0.1789709 0.6648848
v 0.97034978 0.19143459 0.5292117
v 0.97673481 0.19337384 0.37350553
v 0.97521287 0.02084061 0.52539962
v 0.98015034 0.02530818 0.38343536
v 0.98333084 0.02081298 0.22973434
v 0.98340123 -0.14348213 0.38464534
v 0.98546731 -0.14448766 0.23149211
v 0.98625564 -0.14473554 0.07438594
v 0.98627448 -0.30576917 0.22633913
v 0.98578518 -0.30487445 0.06989344
v 0.98432874 -0.30903822 -0.0801512
v 0.9860264 -0.15044717 -0.07479751
v 0.98244595 -0.31907394 -0.23233544
v 0.98483109 -0.16749 -0.23684683
v 0.98039096 -0.33249253 -0.38875773
v 0.97227108 -0.47338679 -0.229062
v 0.96942395 -0.48378431 -0.37727835
v 0.96642154 -0.49436456 -0.52060967
v 0.9363147 -0.62924826 -0.36551374
v 0.93145698 -0.63793802 -0.50360256
v 0.91599327 -0.64471656 -0.63578355
v 0.94977867 -0.50213688 -0.65645682
v 0.85389912 -0.63999533 -0.76160454
v 0.87295073 -0.50055009 -0.7793805
v 0.72840517 -0.62654829 -0.86303311
v 0.73767066 -0.4913268 -0.8646788
v 0.57530945 -0.62978375 -0.92866438
v 0.57708293 -0.49007329 -0.93594163
v 0.41787269 -0.64852958 -0.96890169
v 0.40737056 -0.49970871 -0.98179745
v 0.25687694 -0.66826868 -0.98453903
v 0.24480956 -0.51039415 -0.99375164
v 0.09797928 -0.68233704 -0.98715704
v 0.09028333 -0.51823353 -0.99478554
v -0.05844229 -0.6877439 -0.98083925
v -0.05813078 -0.51237112 -0.99141836
v -0.20607684 -0.68432289 -0.97425556
v -0.21606504 -0.51253724 -0.98609536
v -0.37060368 -0.69558513 -0.96117216
v -0.40394476 -0.56205487 -0.97332119
v -0.56172221 -0.7329849 -0.88147825
v -0.58878177 -0.62139314 -0.90643972
v -0.63063418 -0.4739989 -0.92979735
v -0.75341182 -0.63379555 -0.78010422
v -0.77881401 -0.48502555 -0.81540387
v -0.84347796 -0.60828018 -0.60232484
v -0.8636856 -0.4643611 -0.64201617
v -0.87780946 -0.59530085 -0.41749432
v -0.90061581 -0.4384945 -0.45381397
v -0.90354013 -0.58685261 -0.2537975
v -0.92928582 -0.4199756 -0.28168842
v -0.92602843 -0.57842987 -0.09891802
v -0.95222127 -0.40896737 -0.12173579
v -0.9465273 -0.5688703 0.05641068
v -0.97019338 -0.4096848 0.04000779
v -0.96535491 -0.56109565 0.21862009
v -0.98593604 -0.40555128 0.20085866
v -0.98235827 -0.54461878 0.37277391
v -0.99261343 -0.38615992 0.35768449
v -0.9946419 -0.23258999 0.34679439
v -0.98572307 -0.37422278 0.51778084
v -0.98672425 -0.21976488 0.50992357
v -0.98841005 -0.06083827 0.49568438
v -0.97446608 -0.21302458 0.65999937
v -0.97533637 -0.05370504 0.65145754
v -0.97686612 0.10378246 0.63733971
v -0.96337872 -0.04961374 0.76225489
v -0.96394914 0.10923959 0.7544288
v -0.96531689 0.26565611 0.74354296
v -0.95279508 0.11325605 0.83602762
v -0.95375609 0.27040234 0.82684993
v -0.95482182 0.42585614 0.81736749
v -0.93023896 0.27372211 0.90161091
v -0.93140184 0.43056806 0.89372021
v -0.93607157 0.58158612 0.87687456
v -0.87589281 0.43303263 0.94771277
v -0.88433623 0.5873152 0.94084787
v -0.88900005 0.72179377 0.91091567
v -0.94054907 0.71391898 0.84648937
v -0.80346626 0.58789879 0.96776425
v -0.81171399 0.72600418 0.95155108
v -0.70368599 0.58904331 0.97881871
v -0.70814192 0.72845739 0.97292953
v -0.71249663 0.83667236 0.93852204
v -0.57155108 0.73424536 0.98009181
v -0.57937878 0.83913743 0.94844001
v -0.5849061 0.91795331 0.90394359
v -0.71620464 0.91372269 0.88831722
v -0.58870512 0.97521472 0.84538561
v -0.71660345 0.96487879 0.8282898
v -0.43522664 0.92168873 0.91032379
v -0.44056698 0.97683239 0.85256308
v -0.28032285 0.92213624 0.91139167
v -0.28652566 0.97524404 0.85363978
v -0.12406269 0.92281878 0.91057211
v -0.13204586 0.97560578 0.85223507
v 0.03232983 0.92360985 0.9049189
v 0.0222499 0.97814345 0.84672349
v 0.18959496 0.92819857 0.89331454
v 0.17692101 0.98045086 0.83570176
v 0.35135477 0.93778598 0.87977343
v 0.20117014 0.85194671 0.92993331
v 0.3657743 0.86265134 0.91580003
v 0.52904248 0.87627822 0.88958782
v 0.37996631 0.76853299 0.95133137
v 0.54539811 0.77691012 0.92953515
v 0.39540484 0.63645875 0.96721255
v 0.56296229 0.63543397 0.9466561
v 0.41539567 0.47235846 0.95121866
v 0.58569657 0.4729911 0.92953527
v 0.43431413 0.30091333 0.92879492
v 0.60639387 0.30521613 0.9055801
v 0.76349967 0.3207724 0.86671298
v 0.61338132 0.13902978 0.88274109
v 0.76253324 0.14812605 0.84191173
v 0.88109231 0.16248342 0.77231216
v 0.75882381 -0.01771886 0.81764197
v 0.87933784 -0.00667362 0.75453162
v 0.95534247 0.0081431 0.65281844
v 0.87466251 -0.16931538 0.73337286
v 0.95405757 -0.15803007 0.63939636
v 0.97904688 -0.14744848 0.51855415
v 0.95399779 -0.31802058 0.62622243
v 0.98227447 -0.31015619 0.50924533
v 0.98607152 -0.30738514 0.38001313
v 0.9845373 -0.46904194 0.50262755
v 0.98574078 -0.46574005 0.37184965
v 0.98218393 -0.46279677 0.21908104
v 0.9710471 -0.61909157 0.36154553
v 0.95831662 -0.61465603 0.21158178
v 0.94983172 -0.61382001 0.06334731
v 0.97850883 -0.46169042 0.06590683
v 0.94537377 -0.61693793 -0.08079138
v 0.97535437 -0.46548008 -0.08204529
v 0.94036299 -0.62207436 -0.2236714
v 0.88747131 -0.75560545 -0.07690611
v 0.88100051 -0.75646036 -0.21702963
v 0.87671226 -0.75850719 -0.35451528
v 0.80166018 -0.87117171 -0.20894615
v 0.79927682 -0.87016642 -0.34427028
v 0.79848885 -0.8687551 -0.47313627
v 0.87149 -0.76183205 -0.48715278
v 0.79373592 -0.86452925 -0.5891903
v 0.86014097 -0.76501017 -0.61038667
v 0.81841486 -0.7584638 -0.73133027
v 0.71814107 -0.74874371 -0.84149289
v 0.58257436 -0.75773233 -0.91298329
v 0.44626149 -0.88096958 -0.91673183
v 0.43327093 -0.77514964 -0.95573926
v 0.28583762 -0.89046603 -0.94224178
v 0.27247193 -0.79115796 -0.97315919
v 0.11882183 -0.90150821 -0.94585359
v 0.10850075 -0.80548071 -0.9766277
v -0.0484782 -0.91077524 -0.93570637
v -0.05555188 -0.81777215 -0.96833062
v -0.21422208 -0.91145736 -0.91507929
v -0.21683761 -0.82050335 -0.95673793
v -0.37332195 -0.90799754 -0.87453109
v -0.37514898 -0.82364493 -0.92873525
v -0.5276876 -0.90370982 -0.80189645
v -0.5485233 -0.828125 -0.84852367
v -0.67271345 -0.912207 -0.69056922
v -0.7081213 -0.84332871 -0.72242158
v -0.73402571 -0.74925231 -0.74926286
v -0.80347943 -0.85009449 -0.55197244
v -0.82302361 -0.74748522 -0.56644046
v -0.83712005 -0.84266239 -0.37877351
v -0.85453599 -0.74467027 -0.39079964
v -0.86411714 -0.83020561 -0.214805
v -0.87944638 -0.73769432 -0.23044507
v -0.88856202 -0.81635183 -0.05800809
v -0.90280252 -0.72635811 -0.07510526
v -0.90979856 -0.80700397 0.09724172
v -0.92398864 -0.7156707 0.07864889
v -0.93012702 -0.79515039 0.25140026
v -0.94413697 -0.70420813 0.23550757
v -0.94975704 -0.78365862 0.39888903
v -0.96372169 -0.6864565 0.38703855
v -0.96819382 -0.77189225 0.53168106
v -0.97968655 -0.67034083 0.52215546
v -0.98399782 -0.52757513 0.51992189
v -0.97652131 -0.52691137 0.6537472
v -0.97476434 -0.3730877 0.66129249
v -0.96835994 -0.53300184 0.74455463
v -0.96530968 -0.37517935 0.75663149
v -0.96392512 -0.21145486 0.76222932
v -0.95588928 -0.37877631 0.83419734
v -0.95390987 -0.21158781 0.84460496
v -0.95280444 -0.04727077 0.84381926
v -0.92998564 -0.21251186 0.90997928
v -0.92784345 -0.0453064 0.91209918
v -0.92816925 0.11632737 0.9072411
v -0.86506253 -0.04449905 0.94302159
v -0.86518043 0.11790856 0.94504928
v -0.86868739 0.27541124 0.94801181
v -0.78502517 0.1176641 0.95825523
v -0.78625696 0.27658793 0.96212565
v -0.79486227 0.43405407 0.96509945
v -0.69374901 0.27591675 0.97163468
v -0.69845807 0.43365326 0.97556215
v -0.55197721 0.26991221 0.98203641
v -0.5559017 0.43290251 0.98612582
v -0.56249874 0.59416902 0.98912131
v -0.39566877 0.43412065 0.99098563
v -0.40932565 0.600986 0.99396121
v -0.420185 0.73895865 0.98168909
v -0.25595533 0.60667043 0.99429261
v -0.26572239 0.74116402 0.98180288
v -0.27329248 0.84276431 0.95032423
v -0.42834967 0.84128028 0.94981503
v -0.10884445 0.74446857 0.98089641
v -0.1167032 0.84418684 0.94800657
v 0.0514205 0.7501046 0.97512483
v 0.04134294 0.84584575 0.94159245
v 0.21387589 0.75988906 0.9657377
v 0.06504423 0.62312459 0.99322116
v 0.23036806 0.631774 0.98448562
v 0.08357182 0.46384573 0.98343813
v 0.25002417 0.47010442 0.96936667
v 0.10109515 0.29688885 0.96322053
v 0.26708179 0.30055874 0.9480766
v 0.11115374 0.13090288 0.94357025
v 0.27629143 0.13465571 0.9277575
v 0.44405719 0.13547465 0.90716761
v 0.28072947 -0.02800298 0.9076479
v 0.44711792 -0.02666496 0.88521122
v 0.61364364 -0.02423323 0.85738891
v 0.44837814 -0.18386799 0.86250257
v 0.61245799 -0.18168331 0.83258462
v 0.75577002 -0.1772646 0.79292291
v 0.60984736 -0.33366924 0.81215357
v 0.75148952 -0.33032617 0.77199566
v 0.86931312 -0.32619318 0.71467721
v 0.74115109 -0.47545564 0.7575007
v 0.86001777 -0.47500693 0.70161604
v 0.95097631 -0.47377041 0.6164357
v 0.83790832 -0.61186802 0.69625431
v 0.93281239 -0.62104225 0.61432433
v 0.97391063 -0.62235462 0.49776837
v 0.91818529 -0.75790119 0.49300923
v 0.91519397 -0.7565692 0.35683766
v 0.83375388 -0.87017828 0.49408337
v 0.82913231 -0.8718006 0.3603706
v 0.82106161 -0.87240475 0.21724434
v 0.90453571 -0.75416171 0.20989739
v 0.81298047 -0.8723784 0.07290306
v 0.89425689 -0.75443935 0.06539292
v 0.80650168 -0.87183147 -0.06943214
v 0.70344567 -0.95435392 0.08222097
v 0.69988453 -0.95560878 -0.06058983
v 0.69776743 -0.95689767 -0.20047016
v 0.56801021 -0.99058973 -0.19434636
v 0.56717538 -0.99088186 -0.33196896
v 0.6978935 -0.9568423 -0.33609333
v 0.56894713 -0.98898768 -0.05330956
v 0.42894581 -0.99607092 -0.04899183
v 0.42764988 -0.99680602 -0.19169582
v 0.57053619 -0.98767894 0.09000428
v 0.42949843 -0.99536538 0.09474132
v 0.28433755 -0.99832224 0.09646425
v 0.28508359 -0.99873679 -0.04725628
v 0.57268261 -0.98650795 0.23509031
v 0.42978796 -0.99445676 0.2397221
v 0.28294184 -0.99754554 0.24034075
v 0.1373382 -0.99876445 0.23902773
v 0.1425995 -0.99943685 0.09667773
v 0.42885586 -0.99342143 0.38326054
v 0.28074914 -0.99551767 0.38259664
v 0.13316738 -0.99642944 0.38104629
v -0.01511206 -0.99686908 0.37951263
v -0.00814164 -0.99907434 0.23709598
v 0.27784755 -0.98594164 0.50834125
v 0.13046412 -0.9883241 0.50770235
v -0.01830348 -0.99056708 0.50785315
v -0.17155875 -0.99355679 0.50720024
v -0.16683706 -0.99743264 0.37685313
v 0.12877677 -0.95553684 0.62443012
v -0.0200144 -0.96190255 0.62568557
v -0.173804 -0.97068774 0.62545555
v -0.33404967 -0.9804641 0.62479144
v -0.33109509 -0.99506485 0.50351506
v -0.02370656 -0.88733726 0.72029036
v -0.17827162 -0.89859396 0.71952956
v -0.3377622 -0.91437876 0.72343432
v -0.50256073 -0.92270559 0.72563207
v -0.50016588 -0.98201531 0.62294405
v -0.18644797 -0.7931416 0.78521305
v -0.34527906 -0.80961698 0.78780508
v -0.50603556 -0.82071262 0.79449659
v -0.65750527 -0.81909036 0.80223977
v -0.66043567 -0.91811168 0.72788947
v -0.35571703 -0.68296092 0.83957821
v -0.51307582 -0.69088107 0.84298253
v -0.66268026 -0.68939191 0.84703028
v -0.78362423 -0.68950456 0.84918183
v -0.78588527 -0.8143655 0.80133694
v -0.52545398 -0.53685098 0.87782883
v -0.67959278 -0.53860908 0.88120657
v -0.78527492 -0.54133206 0.88300859
v -0.86250013 -0.54505527 0.88346213
v -0.86507862 -0.69296062 0.84833777
v -0.69110083 -0.37719011 0.9083997
v -0.78908968 -0.37929099 0.9101423
v -0.8653227 -0.38161084 0.91074365
v -0.93048363 -0.38229972 0.89531403
v -0.92860245 -0.54638415 0.8722099
v -0.78899312 -0.21210946 0.93457406
v -0.8667314 -0.21256905 0.93242734
v -0.78863692 -0.04500407 0.95231604
v -0.69429367 -0.2123086 0.9333443
v -0.69417393 -0.04702702 0.95567107
v -0.69269913 0.11548199 0.96737742
v -0.54905545 -0.05350134 0.95282536
v -0.54973858 0.10758238 0.97288656
v -0.37742817 -0.05766701 0.94702011
v -0.379323 0.10098328 0.96797448
v -0.38444241 0.2645756 0.98481875
v -0.21330125 0.10800068 0.96163046
v -0.22470875 0.27164486 0.98005938
v -0.2410122 0.44152978 0.99080336
v -0.06335831 0.28659781 0.97349852
v -0.08148375 0.45323011 0.98864489
v -0.09810395 0.61363822 0.99395138
v -0.05175241 0.12113127 0.95420187
v -0.20827569 -0.05358313 0.94064533
v -0.0451573 -0.04292662 0.93366444
v 0.1170048 -0.03286959 0.92396462
v -0.0413958 -0.20275458 0.91242438
v 0.12168558 -0.19320717 0.90335845
v 0.2843317 -0.1869709 0.88625633
v 0.12482672 -0.34779888 0.88083064
v 0.28791648 -0.34149161 0.86401039
v 0.44974499 -0.33713963 0.84147948
v 0.28680732 -0.49082648 0.84218627
v 0.44759166 -0.48651474 0.82408165
v 0.60352915 -0.48079946 0.799084
v 0.43964278 -0.62888556 0.80358248
v 0.59079742 -0.62119025 0.78739285
v 0.72377723 -0.61240941 0.74905496
v 0.5754891 -0.74830925 0.75761604
v 0.4273563 -0.75502353 0.76556146
v 0.42159637 -0.86732798 0.7106899
v 0.56751763 -0.85819208 0.70871973
v 0.42301634 -0.95037722 0.62429708
v 0.56983685 -0.94649565 0.62641012
v 0.4260413 -0.98626095 0.51089549
v 0.57353812 -0.98119992 0.51114845
v 0.71445709 -0.95139038 0.50443315
v 0.57426846 -0.98590737 0.37944403
v 0.71275055 -0.95570045 0.3705593
v 0.70886302 -0.95619744 0.22694692
v 0.27559483 -0.95139753 0.62333577
v 0.27472913 -0.87134522 0.71367198
v 0.12610147 -0.87789619 0.7180773
v 0.2763898 -0.75901389 0.77294105
v 0.12359736 -0.76684057 0.77995401
v -0.03009946 -0.77827662 0.78449428
v 0.12355089 -0.64085358 0.82603812
v -0.03578677 -0.65221178 0.83231258
v -0.19587479 -0.66735237 0.83585727
v -0.03828695 -0.50698894 0.86682236
v -0.2027982 -0.51922452 0.87141293
v -0.36604908 -0.53046757 0.87468022
v -0.20667961 -0.3658148 0.89625126
v -0.37414205 -0.37231603 0.90078163
v -0.53799873 -0.37592592 0.90481728
v -0.37713247 -0.2151466 0.92447596
v -0.547719 -0.2145245 0.92974597
v -0.20755584 -0.2118632 0.91875278
v -0.03954817 -0.35653549 0.89051437
v 0.12483199 -0.4968374 0.85669261
v 0.28149494 -0.63363295 0.81589043
v -0.95875448 -0.54046136 0.81708943
v -0.92831075 -0.69554001 0.8398354
v -0.92900127 -0.81730878 0.77835637
v -0.87127608 -0.81620633 0.79185086
v -0.92164957 -0.87204396 0.67690539
v -0.87005376 -0.89129185 0.69860249
v -0.78956419 -0.90407216 0.71875762
v -0.85796904 -0.93013191 0.58604151
v -0.7807551 -0.94669157 0.60330778
v -0.66118162 -0.96674025 0.61718428
v -0.7603572 -0.96950393 0.4682745
v -0.65024888 -0.98468881 0.48402333
v -0.49514412 -0.99577486 0.49726462
v -0.63228052 -0.99057829 0.33807653
v -0.4821437 -0.99741041 0.35563305
v -0.32379671 -0.99813628 0.36991924
v -0.46194729 -0.9979031 0.20677438
v -0.30805283 -0.99912273 0.2238447
v -0.15653459 -0.99926507 0.23349115
v -0.28391245 -0.99940753 0.08319167
v -0.13894268 -0.99973714 0.09362021
v 0.00250552 -0.99973368 0.09656173
v -0.1170604 -0.99988222 -0.04162217
v 0.01421058 -0.99988746 -0.04325024
v 0.14710876 -0.99965119 -0.0460248
v 0.0227539 -0.99990785 -0.18761107
v 0.14880707 -0.99973517 -0.1924656
v 0.28371408 -0.99904465 -0.19226634
v 0.14603681 -0.99971014 -0.3449155
v 0.279859 -0.99920576 -0.33953771
v 0.42373338 -0.99738055 -0.33256968
v 0.27550572 -0.99870991 -0.49170848
v 0.4163208 -0.99743878 -0.47200596
v 0.56118232 -0.9916836 -0.46268212
v 0.41700014 -0.99575078 -0.61166155
v 0.55808877 -0.99163532 -0.58274734
v 0.69947606 -0.95155108 -0.57635021
v 0.6987729 -0.95469218 -0.4649927
v 0.43091172 -0.98338902 -0.7297787
v 0.27769285 -0.99593937 -0.64514505
v 0.28521934 -0.98652839 -0.76702487
v 0.28971308 -0.95824164 -0.86826437
v 0.44452938 -0.95255368 -0.8334099
v 0.13155277 -0.99114996 -0.77928739
v 0.12669353 -0.9661709 -0.87711226
v -0.02559679 -0.99187946 -0.77380853
v -0.03851159 -0.96945834 -0.86870163
v -0.17810615 -0.98973953 -0.75206702
v -0.20095993 -0.9671303 -0.84583723
v -0.31723529 -0.98573076 -0.71136331
v -0.35267159 -0.96192097 -0.80186933
v -0.44557037 -0.98008948 -0.65346616
v -0.49268516 -0.95553487 -0.7345215
v -0.55975925 -0.97670179 -0.57037866
v -0.62112182 -0.95469039 -0.63649874
v -0.64796525 -0.97773522 -0.45586597
v -0.7158302 -0.96220421 -0.50169515
v -0.77272796 -0.92444771 -0.5375089
v -0.77091467 -0.96301895 -0.34085729
v -0.81875878 -0.91731286 -0.36441004
v -0.80953896 -0.95535332 -0.1825359
v -0.84930872 -0.90377765 -0.20050585
v -0.84199917 -0.94997847 -0.02739468
v -0.87545329 -0.89191877 -0.04321772
v -0.86367231 -0.94119685 0.1287536
v -0.89636623 -0.88160574 0.11295014
v -0.87899571 -0.93074369 0.2839604
v -0.91330641 -0.87136173 0.2672989
v -0.89581167 -0.91825974 0.43182495
v -0.93331152 -0.860551 0.41381672
v -0.91312515 -0.90115684 0.56629234
v -0.95108258 -0.84732246 0.54652512
v -0.83759671 -0.95270872 0.45036473
v -0.8182193 -0.96154224 0.3009338
v -0.73829376 -0.97795379 0.31922954
v -0.71759688 -0.9799509 0.16406701
v -0.61120033 -0.99164009 0.18494866
v -0.7991473 -0.96702766 0.14553594
v -0.77430671 -0.96955919 -0.0089738
v -0.69304037 -0.9807046 0.01143738
v -0.66289126 -0.98286235 -0.13553814
v -0.54239559 -0.99335861 -0.10285002
v -0.58119827 -0.99207001 0.03634656
v -0.74174344 -0.97265523 -0.16024227
v -0.70143228 -0.97672063 -0.31069436
v -0.62299704 -0.9859271 -0.27536836
v -0.49276834 -0.99497032 -0.22460979
v -0.34230706 -0.99851858 -0.18381823
v -0.3924134 -0.99812227 -0.06887207
v -0.21649237 -0.99960762 -0.17224861
v -0.25239843 -0.9995045 -0.04814298
v -0.43266165 -0.99771672 0.06320347
v -0.09733295 -0.99985849 -0.17759141
v -0.19960688 -0.99931454 -0.3020167
v -0.09508021 -0.99963277 -0.32644158
v 0.02067627 -0.99973684 -0.34171968
v -0.11627169 -0.9987151 -0.4850443
v 0.00694345 -0.99909281 -0.50305038
v 0.13932807 -0.9991033 -0.50502085
v -0.01133806 -0.99706399 -0.66010236
v 0.13467674 -0.99676692 -0.66173601
v -0.15005964 -0.99612349 -0.64012301
v -0.2245261 -0.99799716 -0.45152965
v -0.27638775 -0.99400907 -0.60438996
g Group5570
f 1 9 10 11
f 1 11 12 13
f 1 13 14 9
f 2 15 16 17
f 2 17 18 19
f 2 19 20 15
f 3 21 22 23
f 3 23 24 25
f 3 25 26 21
f 4 27 28 29
f 4 29 30 31
f 4 31 32 27
f 5 33 34 35
f 5 35 36 37
f 5 37 38 33
f 6 39 40 41
f 6 41 42 43
f 6 43 44 39
f 7 45 46 47
f 7 47 48 49
f 7 49 50 45
f 8 51 52 53
f 8 53 54 55
f 8 55 56 51
f 56 55 57 58
f 56 58 59 60
f 56 60 61 51
f 61 60 62 63
f 61 63 64 65
f 61 65 52 51
f 65 64 66 67
f 65 67 68 52
f 68 69 53 52
f 68 67 70 71
f 68 71 72 69
f 72 73 74 69
f 72 71 75 76
f 72 76 77 73
f 77 78 79 80
f 77 80 81 73
f 77 76 82 78
f 82 76 75 83
f 82 83 84 85
f 82 85 86 78
f 86 87 79 78
f 86 85 88 89
f 86 89 90 87
f 90 91 92 93
f 90 93 94 87
f 90 89 95 91
f 95 96 97 91
f 95 89 88 98
f 95 98 99 96
f 99 98 100 101
f 99 101 18 17
f 99 17 16 96
f 101 100 102 103
f 101 103 104 18
f 104 103 105 106
f 104 106 107 108
f 104 108 19 18
f 108 107 109 110
f 108 110 20 19
f 110 109 111 112
f 110 112 113 20
f 113 112 114 115
f 113 115 116 117
f 113 117 15 20
f 117 116 118 119
f 117 119 16 15
f 119 118 120 97
f 119 97 96 16
f 120 118 121 122
f 120 122 123 92
f 120 92 91 97
f 123 122 124 125
f 123 125 126 127
f 123 127 93 92
f 127 126 128 129
f 127 129 94 93
f 129 128 130 131
f 129 131 132 94
f 132 131 133 134
f 132 134 80 79
f 132 79 87 94
f 134 133 135 136
f 134 136 81 80
f 136 135 137 138
f 136 138 139 81
f 139 138 140 141
f 139 141 54 74
f 139 74 73 81
f 141 140 142 57
f 141 57 55 54
f 142 140 143 144
f 142 144 145 146
f 142 146 58 57
f 146 145 147 148
f 146 148 59 58
f 148 147 149 150
f 148 150 151 59
f 151 150 152 153
f 151 153 154 62
f 151 62 60 59
f 154 153 155 156
f 154 156 157 158
f 154 158 63 62
f 158 157 159 160
f 158 160 64 63
f 160 159 161 162
f 160 162 66 64
f 162 161 163 164
f 162 164 165 66
f 165 70 67 66
f 165 164 166 167
f 165 167 168 70
f 168 75 71 70
f 168 167 169 170
f 168 170 83 75
f 170 169 171 172
f 170 172 84 83
f 172 171 173 174
f 172 174 175 84
f 175 88 85 84
f 175 174 102 100
f 175 100 98 88
f 174 173 176 102
f 176 173 177 178
f 176 178 179 105
f 176 105 103 102
f 179 178 180 181
f 179 181 182 183
f 179 183 106 105
f 183 182 184 185
f 183 185 107 106
f 185 184 186 187
f 185 187 109 107
f 187 186 188 189
f 187 189 111 109
f 189 188 190 191
f 189 191 192 111
f 192 191 193 194
f 192 194 195 114
f 192 114 112 111
f 195 194 196 197
f 195 197 198 199
f 195 199 115 114
f 199 198 200 201
f 199 201 116 115
f 201 200 202 121
f 201 121 118 116
f 202 200 203 204
f 202 204 205 124
f 202 124 122 121
f 205 204 206 207
f 205 207 208 209
f 205 209 125 124
f 209 208 210 211
f 209 211 126 125
f 211 210 212 213
f 211 213 128 126
f 213 212 214 215
f 213 215 130 128
f 215 214 216 217
f 215 217 218 130
f 218 217 219 220
f 218 220 135 133
f 218 133 131 130
f 220 219 221 222
f 220 222 137 135
f 222 221 223 224
f 222 224 143 137
f 224 223 225 226
f 224 226 144 143
f 226 225 227 228
f 226 228 145 144
f 228 227 229 230
f 228 230 147 145
f 230 229 231 232
f 230 232 149 147
f 232 231 233 234
f 232 234 235 149
f 235 234 236 237
f 235 237 238 152
f 235 152 150 149
f 238 237 239 240
f 238 240 241 155
f 238 155 153 152
f 241 240 242 243
f 241 243 244 245
f 241 245 156 155
f 245 244 246 247
f 245 247 157 156
f 247 246 248 249
f 247 249 159 157
f 249 248 250 251
f 249 251 161 159
f 251 250 252 253
f 251 253 163 161
f 253 252 254 255
f 253 255 256 163
f 256 166 164 163
f 256 255 257 258
f 256 258 259 166
f 259 169 167 166
f 259 258 260 261
f 259 261 171 169
f 261 260 262 177
f 261 177 173 171
f 262 260 263 264
f 262 264 265 180
f 262 180 178 177
f 265 264 266 267
f 265 267 268 269
f 265 269 181 180
f 269 268 270 271
f 269 271 182 181
f 271 270 272 273
f 271 273 184 182
f 273 272 274 275
f 273 275 186 184
f 275 274 276 277
f 275 277 188 186
f 277 276 278 279
f 277 279 190 188
f 279 278 280 281
f 279 281 282 190
f 282 281 283 284
f 282 284 285 193
f 282 193 191 190
f 285 284 286 287
f 285 287 288 196
f 285 196 194 193
f 288 287 289 290
f 288 290 291 292
f 288 292 197 196
f 292 291 293 294
f 292 294 198 197
f 294 293 295 203
f 294 203 200 198
f 295 293 296 297
f 295 297 298 206
f 295 206 204 203
f 298 297 299 300
f 298 300 301 302
f 298 302 207 206
f 302 301 303 304
f 302 304 208 207
f 304 303 305 306
f 304 306 210 208
f 306 305 307 308
f 306 308 212 210
f 308 307 309 310
f 308 310 214 212
f 310 309 311 312
f 310 312 216 214
f 312 311 313 314
f 312 314 315 216
f 315 314 316 317
f 315 317 221 219
f 315 219 217 216
f 317 316 318 319
f 317 319 223 221
f 319 318 320 321
f 319 321 225 223
f 321 320 322 323
f 321 323 227 225
f 323 322 324 325
f 323 325 229 227
f 325 324 326 327
f 325 327 231 229
f 327 326 328 329
f 327 329 233 231
f 329 328 330 331
f 329 331 332 233
f 332 331 333 334
f 332 334 335 236
f 332 236 234 233
f 335 334 336 337
f 335 337 338 239
f 335 239 237 236
f 338 337 339 340
f 338 340 341 242
f 338 242 240 239
f 341 340 342 343
f 341 343 344 345
f 341 345 243 242
f 345 344 346 347
f 345 347 244 243
f 347 346 348 349
f 347 349 246 244
f 349 348 350 351
f 349 351 248 246
f 351 350 352 353
f 351 353 250 248
f 353 352 354 355
f 353 355 252 250
f 355 354 356 357
f 355 357 254 252
f 357 356 358 359
f 357 359 360 254
f 360 257 255 254
f 360 359 361 362
f 360 362 263 257
f 362 361 363 266
f 362 266 264 263
f 363 361 364 365
f 363 365 366 367
f 363 367 267 266
f 367 366 46 368
f 367 368 268 267
f 368 46 45 369
f 368 369 270 268
f 369 45 50 370
f 369 370 272 270
f 370 50 371 372
f 370 372 274 272
f 372 371 373 374
f 372 374 276 274
f 374 373 375 376
f 374 376 278 276
f 376 375 377 378
f 376 378 280 278
f 378 377 379 380
f 378 380 381 280
f 381 380 382 383
f 381 383 384 283
f 381 283 281 280
f 384 383 385 386
f 384 386 387 286
f 384 286 284 283
f 387 386 388 389
f 387 389 390 289
f 387 289 287 286
f 390 389 391 392
f 390 392 393 394
f 390 394 290 289
f 394 393 395 396
f 394 396 291 290
f 396 395 397 296
f 396 296 293 291
f 397 395 398 399
f 397 399 400 299
f 397 299 297 296
f 400 399 401 402
f 400 402 403 404
f 400 404 300 299
f 404 403 405 406
f 404 406 301 300
f 406 405 407 408
f 406 408 303 301
f 408 407 409 410
f 408 410 305 303
f 410 409 411 412
f 410 412 307 305
f 412 411 413 414
f 412 414 309 307
f 414 413 415 416
f 414 416 311 309
f 416 415 417 418
f 416 418 313 311
f 418 417 419 420
f 418 420 421 313
f 421 420 422 423
f 421 423 318 316
f 421 316 314 313
f 423 422 424 425
f 423 425 320 318
f 425 424 426 427
f 425 427 322 320
f 427 426 428 429
f 427 429 324 322
f 429 428 430 431
f 429 431 326 324
f 431 430 432 433
f 431 433 328 326
f 433 432 434 435
f 433 435 330 328
f 435 434 436 437
f 435 437 438 330
f 438 437 439 440
f 438 440 441 333
f 438 333 331 330
f 441 440 442 443
f 441 443 444 336
f 441 336 334 333
f 444 443 445 446
f 444 446 447 339
f 444 339 337 336
f 447 446 448 449
f 447 449 450 342
f 447 342 340 339
f 450 449 451 452
f 450 452 453 454
f 450 454 343 342
f 454 453 455 456
f 454 456 344 343
f 456 455 457 458
f 456 458 346 344
f 458 457 459 460
f 458 460 348 346
f 460 459 461 462
f 460 462 350 348
f 462 461 463 464
f 462 464 352 350
f 464 463 465 466
f 464 466 354 352
f 466 465 467 468
f 466 468 356 354
f 468 467 469 470
f 468 470 358 356
f 470 469 471 472
f 470 472 364 358
f 472 471 473 474
f 472 474 365 364
f 474 473 475 476
f 474 476 366 365
f 476 475 48 47
f 476 47 46 366
f 475 473 477 478
f 475 478 479 48
f 479 478 480 481
f 479 481 482 483
f 479 483 49 48
f 483 482 373 371
f 483 371 50 49
f 482 481 484 485
f 482 485 375 373
f 485 484 486 487
f 485 487 377 375
f 487 486 488 489
f 487 489 379 377
f 489 488 490 491
f 489 491 492 379
f 492 491 493 494
f 492 494 495 382
f 492 382 380 379
f 495 494 496 497
f 495 497 498 385
f 495 385 383 382
f 498 497 499 500
f 498 500 501 388
f 498 388 386 385
f 501 500 502 503
f 501 503 504 391
f 501 391 389 388
f 504 503 505 506
f 504 506 507 508
f 504 508 392 391
f 508 507 509 510
f 508 510 393 392
f 510 509 511 398
f 510 398 395 393
f 511 509 512 513
f 511 513 514 401
f 511 401 399 398
f 514 513 515 516
f 514 516 517 518
f 514 518 402 401
f 518 517 519 520
f 518 520 403 402
f 520 519 521 522
f 520 522 405 403
f 522 521 523 524
f 522 524 407 405
f 524 523 525 526
f 524 526 409 407
f 526 525 527 528
f 526 528 411 409
f 528 527 529 530
f 528 530 413 411
f 530 529 531 532
f 530 532 415 413
f 532 531 533 534
f 532 534 417 415
f 534 533 535 536
f 534 536 419 417
f 536 535 537 538
f 536 538 539 419
f 539 538 540 541
f 539 541 424 422
f 539 422 420 419
f 541 540 542 543
f 541 543 426 424
f 543 542 544 545
f 543 545 428 426
f 545 544 546 547
f 545 547 430 428
f 547 546 548 549
f 547 549 432 430
f 549 548 550 551
f 549 551 434 432
f 551 550 552 553
f 551 553 436 434
f 553 552 554 555
f 553 555 556 436
f 556 555 557 558
f 556 558 559 439
f 556 439 437 436
f 559 558 560 561
f 559 561 562 442
f 559 442 440 439
f 562 561 563 564
f 562 564 565 445
f 562 445 443 442
f 565 564 566 567
f 565 567 568 448
f 565 448 446 445
f 568 567 569 570
f 568 570 571 451
f 568 451 449 448
f 571 570 572 573
f 571 573 574 575
f 571 575 452 451
f 575 574 35 34
f 575 34 453 452
f 574 573 576 577
f 574 577 36 35
f 577 576 578 579
f 577 579 580 36
f 580 579 581 582
f 580 582 583 584
f 580 584 37 36
f 584 583 585 586
f 584 586 38 37
f 586 585 461 459
f 586 459 457 38
f 585 583 587 588
f 585 588 463 461
f 588 587 589 590
f 588 590 465 463
f 590 589 591 592
f 590 592 467 465
f 592 591 593 594
f 592 594 469 467
f 594 593 595 596
f 594 596 471 469
f 596 595 597 477
f 596 477 473 471
f 597 595 598 599
f 597 599 600 480
f 597 480 478 477
f 600 599 601 602
f 600 602 486 484
f 600 484 481 480
f 602 601 603 604
f 602 604 488 486
f 604 603 605 606
f 604 606 490 488
f 606 605 607 608
f 606 608 609 490
f 609 608 610 611
f 609 611 612 493
f 609 493 491 490
f 612 611 613 614
f 612 614 615 496
f 612 496 494 493
f 615 614 616 617
f 615 617 618 499
f 615 499 497 496
f 618 617 619 620
f 618 620 621 502
f 618 502 500 499
f 621 620 622 623
f 621 623 624 505
f 621 505 503 502
f 624 623 625 626
f 624 626 627 628
f 624 628 506 505
f 628 627 629 630
f 628 630 507 506
f 630 629 631 512
f 630 512 509 507
f 631 629 632 633
f 631 633 634 515
f 631 515 513 512
f 634 633 635 636
f 634 636 637 638
f 634 638 516 515
f 638 637 639 640
f 638 640 517 516
f 640 639 24 641
f 640 641 519 517
f 641 24 23 642
f 641 642 521 519
f 642 23 22 643
f 642 643 523 521
f 643 22 644 645
f 643 645 525 523
f 645 644 646 647
f 645 647 527 525
f 647 646 648 649
f 647 649 529 527
f 649 648 650 651
f 649 651 531 529
f 651 650 652 653
f 651 653 533 531
f 653 652 654 655
f 653 655 535 533
f 655 654 656 657
f 655 657 537 535
f 657 656 658 659
f 657 659 660 537
f 660 659 661 662
f 660 662 542 540
f 660 540 538 537
f 662 661 663 664
f 662 664 544 542
f 664 663 665 666
f 664 666 546 544
f 666 665 667 668
f 666 668 548 546
f 668 667 669 670
f 668 670 550 548
f 670 669 671 672
f 670 672 552 550
f 672 671 673 674
f 672 674 554 552
f 674 673 675 676
f 674 676 677 554
f 677 676 10 678
f 677 678 679 557
f 677 557 555 554
f 679 678 680 681
f 679 681 682 560
f 679 560 558 557
f 682 681 683 684
f 682 684 685 563
f 682 563 561 560
f 685 684 686 687
f 685 687 688 566
f 685 566 564 563
f 688 687 689 690
f 688 690 691 569
f 688 569 567 566
f 691 690 692 693
f 691 693 694 572
f 691 572 570 569
f 694 693 695 696
f 694 696 578 576
f 694 576 573 572
f 696 695 697 698
f 696 698 699 578
f 699 698 700 701
f 699 701 702 581
f 699 581 579 578
f 702 701 703 704
f 702 704 705 706
f 702 706 582 581
f 706 705 589 587
f 706 587 583 582
f 705 704 707 708
f 705 708 591 589
f 708 707 709 710
f 708 710 593 591
f 710 709 711 598
f 710 598 595 593
f 711 709 712 713
f 711 713 603 601
f 711 601 599 598
f 713 712 714 715
f 713 715 605 603
f 715 714 716 717
f 715 717 607 605
f 717 716 718 719
f 717 719 720 607
f 720 719 721 722
f 720 722 723 610
f 720 610 608 607
f 723 722 724 725
f 723 725 726 613
f 723 613 611 610
f 726 725 727 728
f 726 728 729 616
f 726 616 614 613
f 729 728 730 731
f 729 731 732 619
f 729 619 617 616
f 732 731 733 734
f 732 734 735 622
f 732 622 620 619
f 735 734 42 736
f 735 736 737 625
f 735 625 623 622
f 737 736 738 739
f 737 739 740 741
f 737 741 626 625
f 741 740 742 743
f 741 743 627 626
f 743 742 744 632
f 743 632 629 627
f 744 742 745 746
f 744 746 747 635
f 744 635 633 632
f 747 748 749 750
f 747 750 636 635
f 747 746 751 748
f 751 752 753 748
f 751 746 745 754
f 751 754 755 752
f 755 756 757 752
f 755 754 758 759
f 755 759 760 756
f 760 761 762 756
f 760 759 763 764
f 760 764 765 761
f 765 766 767 761
f 765 764 768 769
f 765 769 770 766
f 770 771 772 766
f 770 769 773 774
f 770 774 775 771
f 775 776 777 771
f 775 774 778 779
f 775 779 780 776
f 780 781 782 776
f 780 779 783 784
f 780 784 785 781
f 785 786 787 781
f 785 784 788 789
f 785 789 790 786
f 790 791 792 786
f 790 789 793 794
f 790 794 795 791
f 795 796 797 791
f 795 794 798 799
f 795 799 800 796
f 800 801 802 796
f 800 799 803 804
f 800 804 686 801
f 804 803 805 689
f 804 689 687 686
f 805 803 806 807
f 805 807 808 692
f 805 692 690 689
f 808 807 809 810
f 808 810 697 695
f 808 695 693 692
f 810 809 811 812
f 810 812 813 697
f 813 812 814 815
f 813 815 816 700
f 813 700 698 697
f 816 815 817 818
f 816 818 819 703
f 816 703 701 700
f 819 818 714 712
f 819 712 709 707
f 819 707 704 703
f 818 817 716 714
f 817 815 814 820
f 817 820 718 716
f 820 814 821 822
f 820 822 823 718
f 823 822 824 825
f 823 825 826 721
f 823 721 719 718
f 826 825 827 828
f 826 828 829 724
f 826 724 722 721
f 829 828 830 831
f 829 831 832 727
f 829 727 725 724
f 832 831 833 834
f 832 834 835 730
f 832 730 728 727
f 835 834 836 44
f 835 44 43 733
f 835 733 731 730
f 836 837 838 839
f 836 839 39 44
f 836 834 833 837
f 839 838 840 841
f 839 841 40 39
f 841 840 842 843
f 841 843 844 40
f 844 843 845 846
f 844 846 739 738
f 844 738 41 40
f 846 845 758 847
f 846 847 740 739
f 847 758 754 745
f 847 745 742 740
f 845 763 759 758
f 845 843 842 763
f 842 768 764 763
f 842 840 848 768
f 848 773 769 768
f 848 840 838 849
f 848 849 850 773
f 850 778 774 773
f 850 849 851 852
f 850 852 853 778
f 853 783 779 778
f 853 852 854 855
f 853 855 856 783
f 856 788 784 783
f 856 855 857 858
f 856 858 859 788
f 859 793 789 788
f 859 858 860 861
f 859 861 862 793
f 862 798 794 793
f 862 861 863 864
f 862 864 806 798
f 864 863 811 809
f 864 809 807 806
f 863 861 860 865
f 863 865 821 811
f 865 860 866 824
f 865 824 822 821
f 866 860 858 857
f 866 857 867 827
f 866 827 825 824
f 867 857 855 854
f 867 854 868 830
f 867 830 828 827
f 868 854 852 851
f 868 851 837 833
f 868 833 831 830
f 851 849 838 837
f 821 814 812 811
f 806 803 799 798
f 802 869 14 870
f 802 870 797 796
f 802 801 683 869
f 870 14 13 871
f 870 871 872 797
f 872 871 873 874
f 872 874 875 792
f 872 792 791 797
f 875 874 876 877
f 875 877 878 787
f 875 787 786 792
f 878 877 879 880
f 878 880 881 782
f 878 782 781 787
f 881 880 882 883
f 881 883 884 777
f 881 777 776 782
f 884 883 885 886
f 884 886 887 772
f 884 772 771 777
f 887 886 888 889
f 887 889 890 767
f 887 767 766 772
f 890 889 891 892
f 890 892 893 762
f 890 762 761 767
f 893 892 894 895
f 893 895 896 757
f 893 757 756 762
f 896 895 897 898
f 896 898 899 753
f 896 753 752 757
f 899 898 900 901
f 899 901 902 749
f 899 749 748 753
f 902 901 903 904
f 902 904 905 906
f 902 906 750 749
f 906 905 639 637
f 906 637 636 750
f 905 904 26 25
f 905 25 24 639
f 904 903 907 26
f 907 903 908 909
f 907 909 910 911
f 907 911 21 26
f 911 910 646 644
f 911 644 22 21
f 910 909 912 913
f 910 913 648 646
f 913 912 914 915
f 913 915 650 648
f 915 914 916 917
f 915 917 652 650
f 917 916 918 919
f 917 919 654 652
f 919 918 920 921
f 919 921 656 654
f 921 920 922 923
f 921 923 658 656
f 923 922 924 925
f 923 925 926 658
f 926 925 927 928
f 926 928 663 661
f 926 661 659 658
f 928 927 929 930
f 928 930 665 663
f 930 929 931 932
f 930 932 667 665
f 932 931 933 934
f 932 934 669 667
f 934 933 935 936
f 934 936 671 669
f 936 935 937 938
f 936 938 673 671
f 938 937 939 940
f 938 940 675 673
f 940 939 873 12
f 940 12 11 675
f 939 937 941 876
f 939 876 874 873
f 941 942 943 879
f 941 879 877 876
f 941 937 935 942
f 943 944 945 882
f 943 882 880 879
f 943 942 946 944
f 946 947 948 944
f 946 942 935 933
f 946 933 931 947
f 948 949 950 951
f 948 951 945 944
f 948 947 952 949
f 952 953 954 949
f 952 947 931 929
f 952 929 927 953
f 954 28 27 955
f 954 955 950 949
f 954 953 924 28
f 955 27 32 956
f 955 956 957 950
f 957 956 958 959
f 957 959 888 960
f 957 960 951 950
f 960 888 886 885
f 960 885 945 951
f 959 958 961 891
f 959 891 889 888
f 961 958 962 963
f 961 963 964 894
f 961 894 892 891
f 964 963 965 966
f 964 966 967 897
f 964 897 895 894
f 967 900 898 897
f 967 966 968 969
f 967 969 908 900
f 969 968 914 912
f 969 912 909 908
f 968 966 965 970
f 968 970 916 914
f 970 965 971 972
f 970 972 918 916
f 972 971 31 30
f 972 30 920 918
f 971 965 963 962
f 971 962 32 31
f 962 958 956 32
f 953 927 925 924
f 945 885 883 882
f 924 922 29 28
f 922 920 30 29
f 908 903 901 900
f 873 871 13 12
f 869 680 9 14
f 869 683 681 680
f 801 686 684 683
f 738 736 42 41
f 734 733 43 42
f 680 678 10 9
f 676 675 11 10
f 457 455 33 38
f 455 453 34 33
f 364 361 359 358
f 263 260 258 257
f 143 140 138 137
f 74 54 53 69

 